Patient4_TMGait_0pt7_01_right_49_EMG.mot
version=1
nRows=30
nColumns=33
inDegrees=no
endheader
time	1LAddLong	2LGlutMax	3LGlutMed	4LIliopsoas	5LSemiMemb	6LBicFemLong	7LRecFem	8LVastMed	9LVastLat	10LGasMed	11LTibAnt	12lTibPost	13LPeroneusLong	14LSol	15LExtDigLong	16LFlexDigLong	17RAddLong	18RGlutMax	19RGlutMed	20RIliopsoas	21RSemiMemb	22RBicFemLong	23RRecFem	24RVastMed	25RVastLat	26RGasMed	27RTibAnt	28RTibPost	29RPeroneusLong	30RSol	31RExtDigLong	32RFlexDigLong
57.6	-0.003967	-0.13001	-0.095978	0.030823	0.055237	0.18402	-0.005035	0.012207	-0.10498	-0.001831	-0.17548	0.023956	-0.024719	-0.044556	-0.083466	0.018158	0.05249	0.003662	0.03479	0.1236	-0.078583	0.52277	-0.13809	-0.14847	-0.005493	-0.00061	0.24048	-0.00473	-0.024719	0.024109	-0.001373	0.004425
57.601	-0.017548	-0.13687	-0.031891	0.006714	0.018463	0.01358	0.019836	0.000763	0.016022	-0.11169	-0.28015	0.02594	0.072632	0.055237	0.12695	0.019836	0.054626	-0.025787	0.29755	0.060425	-0.21347	0.55176	-0.12573	-0.14725	-0.002136	-0.000916	0.047455	-0.008392	-0.044708	-0.040588	-0.00061	-0.001526
57.602	-0.012054	-0.11658	-0.053101	0.003662	-0.024414	-0.23331	0.085907	-0.005798	0.039673	-0.063477	-0.19211	0.039978	-0.045166	0.090027	0.3241	0.021973	0.025177	-0.052948	0.16083	0.050812	-0.28732	0.60989	-0.1236	-0.14679	0.003967	-0.002289	-0.17929	-0.005798	-0.046539	-0.040131	0.003815	-0.000916
57.603	-0.01358	-0.13229	0.058899	0.003967	-0.010376	-0.24826	0.14435	-0.007324	-0.048065	-0.030823	-0.080414	0.047607	0.076141	0.039825	0.2475	0.031738	0.007782	-0.078125	-0.29739	0.023346	-0.13046	0.82962	-0.10757	-0.11841	0.018005	-0.008392	-0.16235	-0.007477	-0.038605	-0.021973	0.000153	-0.002747
57.604	-0.019684	-0.1828	0.14832	0.00946	0.072784	-0.13046	0.224	0.019989	-0.071716	-0.12054	-0.10178	0.048828	-0.31036	0.18249	0.038147	0.016479	-0.03006	-0.10742	-0.33936	0.019226	0.16159	1.1011	-0.1181	-0.045319	0.018158	-0.006714	-0.062408	-0.004425	-0.015564	-0.04364	0.002594	-0.007172
57.605	-0.014038	-0.1915	0.068665	-0.002136	-0.023956	0.007477	0.19608	0.067444	-0.16937	-0.11322	0.048065	0.027161	-0.6424	0.081482	-0.011444	0.010223	-0.063934	-0.11826	-0.68192	-0.022736	0.36453	1.0649	-0.050507	-0.046539	0.023346	-0.010223	0.103	-0.004425	-0.042114	-0.085144	0.001068	-0.007629
57.606	-0.017242	-0.17716	0.053406	0.011902	-0.085754	0.015259	0.1059	0.042877	-0.14572	-0.092773	0.15442	0.028687	-0.18112	-0.022583	-0.33661	-0.007019	-0.084534	-0.059357	-0.78873	-0.042114	0.36224	0.8017	-0.040131	-0.014496	0.02243	-0.0177	0.062256	0.003815	-0.07309	-0.072021	0.001221	-0.00473
57.607	-0.009308	-0.19791	0.032501	-0.001068	-0.082855	-0.038452	-0.014496	0.03067	-0.057983	-0.16632	0.21332	0.02655	0.224	-0.039368	-0.19669	0.008087	-0.048828	-0.014954	-0.085907	-0.058441	0.15869	0.61935	-0.014496	0.002899	0.017853	-0.013733	0.052643	-0.005035	-0.082703	-0.058746	0.000763	-0.009003
57.608	-0.005493	-0.15182	0.051575	-0.002899	0.075226	-0.081635	-0.004272	0.02533	0.11841	-0.14114	0.18646	0.033112	-0.037842	-0.11368	-0.04776	-0.002136	-0.003357	-0.12116	0.82489	-0.077515	0.10773	0.45319	0.053253	-0.060577	-0.002899	0.000458	-0.006104	-0.001984	-0.079193	-0.087585	-0.001678	-0.013123
57.609	0.006714	-0.18356	0.036926	-0.021667	0.16113	-0.08316	0.028229	-0.003967	0.3183	-0.19409	0.22903	0.028381	-0.094452	0.067444	0.18463	0.0177	0.0354	-0.13229	1.0016	-0.096588	0.13062	0.27573	0.075226	-0.10132	-0.015564	0.021515	0.06073	-0.000305	-0.1619	-0.015259	0.00061	-0.005951
57.61	0.017548	-0.15549	-0.030518	0.011139	0.14999	-0.02594	0.045929	-0.013733	0.42694	-0.10254	0.015564	0.022888	0.34073	-0.048523	0.058289	0.005493	0.066986	-0.19257	0.28397	-0.078125	0.04364	0.20706	0.0177	-0.13306	-0.020294	0.020447	0.1355	-0.00412	-0.23056	0.004578	0.003204	-0.009308
57.611	0.016174	-0.15915	-0.025024	0.039215	0.09079	0.088959	0.093384	-0.034027	0.31769	-0.055847	-0.25314	0.024719	0.19226	0.015717	0.08194	0.012207	0.022888	-0.1709	0.030212	-0.029449	-0.068054	0.16617	0.024872	-0.16861	-0.00412	-0.000153	0.072021	-0.001526	-0.13825	-0.081177	0.002594	0.002136
57.612	0.018158	-0.16861	-0.007477	0.031586	0.038147	0.070496	0.14191	-0.032349	0.31296	-0.062408	-0.14847	0.018616	0.045319	0.10132	0.22263	-0.000763	-0.046997	-0.14282	-0.14374	-0.017242	-0.3038	0.35934	-0.005951	-0.050812	0.020752	-0.009155	0.17364	-0.004578	-0.041504	-0.13473	0.001678	-0.000916
57.613	0.024261	-0.15762	-0.029907	0.011292	0.02533	0.077362	0.099945	-0.019531	0.30685	-0.06134	0.010223	0.011444	-0.035858	0.11124	0.15991	-0.001831	-0.13214	-0.09613	-0.31616	0.006104	-0.22812	0.70862	-0.064697	0.083923	0.022278	-0.012054	0.036926	0.002747	0.041504	-0.11231	-0.001526	-0.001831
57.614	0.018921	-0.16281	-0.031433	-0.011597	0.045471	0.039215	0.11093	-0.005798	0.27939	-0.1265	-0.016174	0.02655	0.21545	0.12161	0.027618	0.007477	-0.1091	-0.031891	-0.19394	0.007324	0.12802	0.76675	-0.044556	0.075531	0.010834	0.005951	-0.26337	-0.007935	0.1973	-0.058746	0.004578	0.000305
57.615	0.014191	-0.168	-0.11108	-0.011444	0.067902	0.065308	0.18188	0.004578	-0.029144	-0.098572	-0.21072	0.028839	0.059204	-0.006256	-0.06012	-0.009308	-0.069275	-0.040436	-0.18341	0.030975	0.16174	0.61035	-0.041351	0.06958	-0.002441	0.021362	-0.35568	-0.005341	0.14893	-0.007324	0.00061	0.001526
57.616	-0.002899	-0.14481	-0.09201	-0.011749	0.053253	0.093842	0.22995	0	-0.3157	-0.089264	-0.058594	0.016479	-0.3717	-0.11856	-0.074158	0.001221	-0.028839	-0.079956	-0.18188	0.027008	0.041504	0.6076	-0.057678	0.058289	0.027313	0.003052	-0.18662	-0.005341	0.10788	0.007324	-0.000763	-0.007782
57.617	-0.002594	-0.16602	-0.010223	0.008698	0.03418	0.082245	0.22644	0.000153	-0.26855	-0.11353	0.046692	0.030365	-0.0914	-0.03479	0.034332	-0.001221	-0.012054	-0.11261	-0.22537	0.022278	-0.03479	0.58929	-0.081482	0.043488	0.014801	-0.023041	0.013428	0.000305	0.050659	-0.0383	-0.003662	-0.000916
57.618	0.014191	-0.18463	-0.006104	0.011292	0.034027	0.061951	0.11673	0.004272	-0.15152	-0.11841	0.00885	0.025635	0.20767	0.050049	-0.030518	0.009308	0.010376	-0.13473	-0.27618	-0.032654	-0.05188	0.52902	-0.023651	0.004578	0.033569	-0.034943	0.093536	-0.002594	0.022736	-0.052948	0.003662	0.002747
57.619	0.006866	-0.1828	-0.004425	-0.001373	-0.003662	0.041809	0.045166	0.016327	-0.068359	-0.084229	-0.028381	0.029449	0.27512	0.043945	-0.15503	0.000916	0.03006	-0.15289	-0.3096	-0.013428	-0.063324	0.27542	0.011749	-0.0737	0.02182	-0.039063	0.26916	-0.006714	-0.090332	-0.054779	0.000763	-0.00412
57.62	-0.006409	-0.16113	0.032349	0.012054	0.007477	0.014954	0.070801	0.008545	-0.074463	-0.045624	-0.006256	0.031433	0.057983	0.03952	-0.09491	0.000153	0.022278	-0.15488	-0.27008	0.019531	-0.06958	0.14511	0.001373	-0.061646	0.001831	0.034332	0.289	-0.001526	-0.19058	-0.028381	0.001984	-0.005188
57.621	-0.002747	-0.15396	0.008087	0.030975	0.013275	0.049438	0.12894	0.006104	-0.11841	-0.032654	0.02594	0.039825	0.16495	0.072784	0.005035	0.010529	-0.004883	-0.103	-0.2507	0.019226	0.031891	0.14648	-0.023651	-0.03006	0.016327	0.061493	0.20935	-0.00885	-0.21408	-0.028534	0.007629	-0.000458
57.622	-0.011597	-0.13657	-0.056305	0.011902	0.00885	0.040283	0.060577	-0.012207	-0.13672	-0.033264	-0.031891	0.04364	0.26855	-0.016632	0.050354	0.012817	0.008087	-0.12863	-0.31754	0.013733	-0.014343	0.22049	0.019379	-0.041656	0.007324	0.025787	0.13077	-0.009155	-0.14206	-0.042725	0.003357	0
57.623	-0.008087	-0.091095	-0.092773	-0.012665	0.008087	0.026245	0.20584	-0.006104	-0.026855	-0.020752	-0.037231	0.027924	0.081482	-0.007019	0.063782	0.005798	0.003204	-0.1239	-0.3186	0.032501	-0.03067	0.06958	0.016632	-0.004578	0.012665	0.005188	0.10178	0.001526	-0.053253	-0.068512	0.001373	-0.006409
57.624	-0.018768	-0.071259	-0.006866	-0.023499	0.022736	0.034332	0.289	-0.002289	-0.027771	-0.031433	-0.0383	0.03952	0.44632	0.042725	0.1033	0.00351	0.048523	-0.060577	-0.28366	-0.005188	-0.011749	-0.056915	0.029755	-0.09491	0.006561	0.001526	0.042267	-0.010223	0.12802	-0.048218	0.003052	0.006409
57.625	-0.003815	-0.11414	-0.10742	-0.013428	-0.000763	0.040283	0.22003	-0.002136	0.01709	-0.031586	0.023346	0.034943	0.45364	0.13443	0.18845	0.005188	0.06134	-0.06134	-0.24796	0.006104	-0.10254	-0.13596	0.037689	-0.08667	0.010223	0.003967	0.040588	-0.003662	0.15152	-0.033875	0.002289	-0.000916
57.626	-0.019836	-0.093689	-0.099335	-0.023499	0.013733	0.046692	0.098877	0.007477	0.093231	-0.074158	0.012054	0.023651	-0.12894	0.1152	0.059967	-0.004578	0.060272	-0.065002	-0.25986	-0.02121	-0.13702	-0.24063	0.013275	-0.13809	-0.004425	-0.003204	0.068665	-0.007935	0.07431	-0.055389	0.001678	-0.003967
57.627	-0.041199	-0.10635	-0.12299	-0.002441	-0.004272	0.057678	0.05722	0.001526	0.078888	-0.11902	0.024719	0.027008	-0.46387	-0.028076	-0.028534	0.003204	0.043335	-0.037689	-0.33752	-0.010376	-0.099792	-0.25909	0.021362	-0.13382	0.014191	-0.021362	0.069122	-0.010529	0.0177	-0.075836	0	0.000916
57.628	-0.007172	-0.098724	-0.19699	0.015869	-0.045776	0.068207	0.044708	0.002899	0.04425	-0.11353	0.018768	0.026398	-0.59677	-0.018005	-0.039673	0.013275	-0.020294	-0.033875	-0.47287	0.027313	-0.080719	-0.25986	-0.023346	-0.081787	0.03067	0.005341	0.045471	-0.012054	0.016937	-0.075989	0.004272	-0.000305
57.629	-0.012054	-0.080566	-0.16571	0.023651	-0.06546	0.098724	-0.007172	0.005493	-0.087128	-0.1001	-0.002594	0.034485	-1.2585	0.081635	0.005646	0.01297	-0.043182	0.081787	-0.75241	0.021057	-0.18158	-0.35065	0.002594	-0.076294	0.0354	0.00412	0.017548	-0.010529	-0.023041	-0.035858	0.002136	0.003967
